<?xml version="1.0" standalone="no"?>
<!DOCTYPE svg PUBLIC "-//W3C//DTD SVG 20010904//EN"
 "http://www.w3.org/TR/2001/REC-SVG-20010904/DTD/svg10.dtd">
<svg version="1.0" xmlns="http://www.w3.org/2000/svg"
 width="1100.000000pt" height="1100.000000pt" viewBox="0 0 1100.000000 1100.000000"
 preserveAspectRatio="xMidYMid meet">
<metadata>
Created by potrace 1.11, written by Peter Selinger 2001-2013
</metadata>
<g transform="translate(0.000000,1100.000000) scale(0.100000,-0.100000)"
fill="#000000" stroke="none">
<path d="M6668 9355 c-2 -2 -49 -6 -105 -10 -56 -3 -113 -8 -125 -10 -13 -2
-52 -6 -88 -10 -36 -4 -83 -9 -105 -11 -55 -6 -287 -44 -295 -49 -3 -2 -26 -6
-50 -10 -55 -8 -197 -39 -305 -66 -44 -12 -87 -22 -95 -24 -15 -4 -34 -10
-245 -74 -114 -34 -349 -121 -493 -182 -316 -134 -769 -368 -1070 -554 -123
-76 -390 -254 -433 -289 -14 -11 -36 -28 -49 -36 -31 -20 -198 -147 -235 -179
-17 -14 -51 -42 -75 -61 -268 -214 -669 -604 -860 -839 -19 -23 -45 -55 -58
-69 -43 -49 -186 -235 -244 -317 -32 -44 -65 -90 -73 -102 -9 -11 -31 -43 -48
-70 -29 -45 -35 -49 -62 -43 -16 3 -43 3 -60 -1 -16 -3 -219 -77 -450 -163
-231 -86 -440 -164 -465 -173 -25 -9 -54 -23 -65 -30 -11 -7 -127 -119 -257
-249 -168 -167 -241 -247 -249 -271 -13 -41 -6 -97 20 -162 23 -56 28 -70 191
-511 73 -195 136 -364 141 -375 5 -11 54 -144 109 -295 56 -151 105 -284 110
-295 5 -11 25 -65 45 -120 55 -147 69 -185 131 -345 275 -705 710 -1130 1276
-1249 74 -15 124 -34 210 -78 228 -118 527 -229 748 -277 156 -34 320 -64 395
-71 33 -4 71 -8 85 -11 156 -27 775 -26 1003 2 70 8 391 54 412 58 11 3 79 16
150 31 405 82 969 259 1320 415 22 10 78 35 125 55 783 343 1496 832 2114
1451 125 126 225 231 306 324 41 47 77 87 80 90 13 13 189 229 216 265 16 22
31 42 35 45 3 3 25 32 50 65 51 70 60 78 108 95 141 50 380 186 546 310 87 65
323 288 395 375 220 263 429 592 521 821 31 79 76 217 85 264 3 14 10 45 15
70 35 150 48 297 44 495 -2 99 -6 196 -9 215 -3 19 -8 53 -11 75 -66 450 -293
913 -612 1246 -300 313 -668 513 -1088 590 -98 18 -157 23 -320 23 -110 0
-215 -3 -233 -6 -24 -5 -54 1 -100 19 -37 14 -110 39 -162 55 -52 16 -113 36
-135 43 -49 16 -399 102 -440 108 -46 8 -157 26 -180 31 -11 2 -45 7 -76 10
-31 4 -67 9 -80 11 -13 3 -61 7 -106 10 -46 4 -93 9 -106 12 -23 5 -663 13
-669 8z"/>
</g>
</svg>
